<svg width="9124.957641601562" height="8033.05810546875" xmlns="http://www.w3.org/2000/svg" xmlns:svg="http://www.w3.org/2000/svg">
 <!-- All images created with SVG-edit - http://svg-edit.googlecode.com/ -->
 <g>
  <title>Layer 1</title>
  <g id="logo">
   <svg id="svg_307" viewBox="0 0 478 472" xmlns="http://www.w3.org/2000/svg" xmlns:xlink="http://www.w3.org/1999/xlink">
    <defs>
     <linearGradient y2="1" x2="1" y1="0" x1="0" id="svg_23">
      <stop stop-color="#ffffe0" offset="0"/>
      <stop stop-color="#edc39c" offset="1"/>
     </linearGradient>
     <linearGradient y2="0.41406" x2="0.28906" y1="0.78125" x1="0.57031" id="svg_30">
      <stop stop-color="#ff7f00" offset="0"/>
      <stop stop-color="#ffff00" offset="1"/>
     </linearGradient>
     <linearGradient y2="1" x2="1" y1="0.35938" x1="0.37891" id="svg_28">
      <stop stop-color="#e0e0e0" offset="0"/>
      <stop stop-color="#666666" offset="1"/>
     </linearGradient>
    </defs>
    <g id="svg_308">
     <path fill="#ffffff" id="svg_35" d="m68.82031,270.04688l-22,-33l17,-35l34,2l25,15l7,-35l28,-16l25,12l100,102l21,23l-15,35l-36,9l20,49l-31,24l-49,-17l-1,31l-33,21l-31,-19l-13,-35l-30,21l-30,-9l-5,-35l16,-31l-32,-6l-15,-19l3,-36l47,-18z"/>
     <path d="m158.96452,155.03685c-25.02071,0 -45.37077,20.35121 -45.37077,45.3775c0,0.72217 0.01794,1.4399 0.0471,2.15645c-0.49339,-0.53604 -0.99355,-1.06085 -1.50603,-1.58452c-8.56077,-8.55519 -19.95982,-13.28413 -32.07432,-13.28413c-12.12122,0 -23.52027,4.72334 -32.08778,13.29646c-17.69347,17.69464 -17.69347,46.4619 0,64.17445c0.51809,0.51697 1.0485,1.0126 1.59015,1.50601c-0.72891,-0.03586 -1.45782,-0.04822 -2.19234,-0.04822c-25.02071,0 -45.37189,20.35117 -45.37189,45.37747c0,25.01398 20.35119,45.36517 45.37189,45.36517c0.72891,0 1.45221,-0.01236 2.1744,-0.04831c-0.5293,0.48224 -1.05412,0.98804 -1.56547,1.49368c-17.70021,17.68909 -17.70021,46.48657 -0.00628,64.18677c8.57872,8.56747 19.96655,13.2785 32.08778,13.2785c12.1145,0 23.5012,-4.71103 32.07433,-13.2785c0.51247,-0.51694 1.01823,-1.04846 1.50603,-1.57895c-0.02915,0.71216 -0.04709,1.44672 -0.04709,2.15759c0,25.01511 20.35007,45.37747 45.37077,45.37747c25.01398,0 45.37079,-20.3624 45.37079,-45.37747c0,-0.7222 -0.01689,-1.44553 -0.05266,-2.18112c0.48105,0.52933 0.97562,1.04849 1.48697,1.56662c8.57982,8.57977 19.97775,13.2908 32.1057,13.2908c12.11003,0 23.51358,-4.71103 32.0687,-13.2785c17.68906,-17.7001 17.68906,-46.48535 0,-64.17441c-0.50577,-0.4946 -1.01141,-1.00034 -1.54306,-1.48248c0.69983,0.03595 1.42316,0.04831 2.16992,0.04831c25.01514,0 45.35284,-20.35126 45.35284,-45.36517c0,-25.02631 -20.33774,-45.37747 -45.35284,-45.37747c-0.74683,0 -1.47009,0.01236 -2.19345,0.04822c0.53152,-0.49341 1.06082,-0.98904 1.59128,-1.50601c8.55524,-8.55521 13.2785,-19.94186 13.2785,-32.07545c0,-12.12793 -4.72336,-23.52028 -13.30319,-32.0934c-8.55515,-8.56076 -19.95865,-13.2841 -32.0687,-13.2841c-12.12122,0 -23.52025,4.72334 -32.08777,13.2841c-0.51137,0.5181 -1.01822,1.04851 -1.5049,1.57895c0.03586,-0.72331 0.05266,-1.43991 0.05266,-2.16881c0,-25.02629 -20.35681,-45.3775 -45.37079,-45.3775m0,20.71901c13.61607,0 24.65851,11.03122 24.65851,24.65849c0,6.62749 -2.651,12.62137 -6.9101,17.04979l0,51.67419l36.53975,-36.53523c0.12001,-6.14418 2.48277,-12.24686 7.18146,-16.94667c4.81305,-4.81305 11.12094,-7.22409 17.44116,-7.22409c6.30228,0 12.61577,2.41104 17.43552,7.22409c9.62166,9.63287 9.62166,25.24948 0,34.87669c-4.69977,4.68634 -10.80803,7.04915 -16.95334,7.18147l-36.5341,36.53305l51.66743,0c4.42839,-4.25351 10.42903,-6.90451 17.08006,-6.90451c13.59137,0 24.62933,11.03799 24.62933,24.66525c0,13.61606 -11.03796,24.66519 -24.62933,24.66519c-6.65106,0 -12.65167,-2.66333 -17.08006,-6.91681l-51.64836,0l36.50273,36.50943c6.16994,0.14465 12.26587,2.50525 16.96567,7.20621c9.6216,9.61487 9.6216,25.23151 0,34.85757c-4.80855,4.81979 -11.13327,7.22974 -17.43556,7.22974c-6.32019,0 -12.6337,-2.40991 -17.44785,-7.22974c-4.68074,-4.68744 -7.04803,-10.79572 -7.17474,-16.94101l-36.53975,-36.53412l0,51.66739c4.25908,4.44635 6.91011,10.43466 6.91011,17.0621c0,13.62729 -11.04243,24.66415 -24.65851,24.66415c-13.62167,0 -24.65849,-11.0369 -24.65849,-24.66415c0,-6.62744 2.6454,-12.61575 6.90335,-17.0621l0,-51.66739l-36.53864,36.54645c-0.12672,6.14413 -2.48838,12.26477 -7.18147,16.94098c-4.81416,4.81876 -11.12206,7.22977 -17.42882,7.22977c-6.31461,0 -12.6225,-2.41101 -17.43555,-7.22977c-9.63284,-9.62833 -9.63284,-25.24274 0,-34.86987c4.68073,-4.67627 10.79012,-7.05026 16.94101,-7.18262l36.533,-36.53302l-51.66632,0c-4.44075,4.25348 -10.42902,6.91681 -17.06211,6.91681c-13.61606,0 -24.65288,-11.04913 -24.65288,-24.66519c0,-13.62726 11.03682,-24.66525 24.65288,-24.66525c6.63309,0 12.62136,2.651 17.06211,6.90451l51.68537,0l-36.55207,-36.54538c-6.14527,-0.12003 -12.25354,-2.49403 -16.94775,-7.19379c-9.62611,-9.61493 -9.62611,-25.23714 0,-34.86441c4.81419,-4.81305 11.12769,-7.22406 17.44228,-7.22406c6.30676,0 12.61464,2.41101 17.42883,7.22406c4.69978,4.69307 7.06033,10.80246 7.18143,16.94777l36.5386,36.533l0,-51.66075c-4.25795,-4.42841 -6.90334,-10.42229 -6.90334,-17.04979c0,-13.62726 11.03682,-24.65848 24.65848,-24.65848" id="svg_34" fill-rule="nonzero" fill="#1a171a"/>
     <path fill="url(#svg_30)" id="svg_29" d="m188.82031,210.04688l16,-47l155,-148l107,100l-158,156.99999l-44,12l-76,-74.00002l0,0.00002z"/>
     <path fill="url(#svg_28)" id="svg_27" d="m335.57031,40.29688c-11.5,39.75 55.5,115.25 109.25,98.75l21,-20.99998l-103,-101l-27.25,23.25l0,-0.00001z"/>
     <rect opacity="0.4" transform="rotate(45.909400939941406 293.9800109863282,137.1000061035156) " fill="#ffffff" id="svg_26" height="232.66835" width="42.35197" y="20.76382" x="272.80404"/>
     <rect id="svg_25" opacity="0.4" transform="rotate(45.909400939941406 289.8049926757813,139.1000061035156) " fill="#ffffff" height="232.66835" width="14" y="22.76382" x="282.80404"/>
     <ellipse transform="rotate(39.4734992980957 415.13299560546875,64.37899780273435) " ry="34.82026" rx="67.79251" fill="#ea7598" id="svg_24" cy="64.38066" cx="415.13312"/>
     <path fill="url(#svg_23)" id="svg_22" d="m212.07031,166.04688c-8.5,47 36.25,103.75 99.25,96.75l-152.5,53.25l53.25,-150z"/>
     <path fill="#27382f" id="svg_20" d="m181.32031,242.54688c0.5,20.5 26.75,45 46.75,48.5l-66.25,20l19.5,-68.5z"/>
    </g>
    <g id="svg_309">
     <path stroke-width="17" stroke="#800000" fill="none" id="svg_17" d="m152.82031,317.04688l51,-152l157,-153c40,-12.00001 118,48 105,105l-157,152.99999l-156,47z"/>
    </g>
   </svg>
  </g>
  <g id="select">
   <svg id="svg_310" viewBox="0 0 32 32" xmlns="http://www.w3.org/2000/svg" xmlns:xlink="http://www.w3.org/1999/xlink">
    <path id="svg_311" d="m16.689,17.655l5.311,12.345l-4,2l-4.646,-12.678l-7.354,6.678l0,-26l20,16l-9.311,1.655z" fill="#aeaeae" class="path1"/>
   </svg>
  </g>
  <g id="select_node">
   <svg id="svg_312" viewBox="0 0 24 24" xmlns:xlink="http://www.w3.org/1999/xlink" xmlns="http://www.w3.org/2000/svg">
    <circle stroke-width="1.5" cx="8.7" cy="5.3" r="3.87891" id="svg_37" fill="#00ffff" stroke="#0000ff"/>
    <path stroke="#ffffff" fill="#000000" id="svg_36" d="m9.18161,5.6695l0.07763,15.16198l3.41588,-2.33775l2.71718,5.00947l4.34748,-2.33775l-3.41587,-4.27474l4.73565,-0.33397l-11.87794,-10.88723l-0.00001,-0.00001z"/>
   </svg>
  </g>
  <g id="square">
   <svg id="svg_313" viewBox="0 0 24 24" xmlns="http://www.w3.org/2000/svg" xmlns:xlink="http://www.w3.org/1999/xlink">
    <defs>
     <linearGradient y2="1" x2="1" y1="0.10156" x1="0.36328" id="svg_39">
      <stop stop-color="#ffffff" offset="0"/>
      <stop stop-color="#3b7e9b" offset="1"/>
     </linearGradient>
    </defs>
    <rect stroke="#000000" fill="url(#svg_39)" id="svg_38" height="20" width="20" y="1.5" x="1.5"/>
   </svg>
  </g>
  <g id="rect">
   <svg id="svg_314" viewBox="0 0 32 32" xmlns:xlink="http://www.w3.org/1999/xlink" xmlns="http://www.w3.org/2000/svg">
    <path id="svg_315" d="m30.889,5.451l0,-2.17l-2.17,0l0,-2.17l-2.17,0l0,2.17l-21.097,0l0,-2.17l-2.17,0l0,2.17l-2.17,0l0,2.17l2.17,0l0,21.097l-2.17,0l0,2.17l2.17,0l0,2.17l2.17,0l0,-2.17l21.097,0l0,2.17l2.17,0l0,-2.17l2.17,0l0,-2.17l-2.17,0l0,-21.097l2.17,0zm-4.34,21.098l-21.097,0l0,-21.097l21.097,0l0,21.097z" fill="#aeaeae"/>
   </svg>
  </g>
  <g id="fh_rect">
   <svg id="svg_316" viewBox="0 0 52 52" xmlns="http://www.w3.org/2000/svg" xmlns:xlink="http://www.w3.org/1999/xlink">
    <defs>
     <linearGradient id="svg_67" x1="0.36328" y1="0.10156" x2="1" y2="1">
      <stop offset="0" stop-color="#ffffff"/>
      <stop offset="1" stop-color="#3b7e9b"/>
     </linearGradient>
     <linearGradient id="svg_68" x1="0.3046" y1="0.1093" x2="0.6132" y2="0.3945">
      <stop offset="0" stop-color="#f9d225"/>
      <stop offset="1" stop-color="#bf5f00"/>
     </linearGradient>
    </defs>
    <rect x="1.25" y="0.75" width="50" height="50" id="svg_69" fill="url(#svg_67)" stroke-width="2" stroke="#000000"/>
    <path d="m31.5,0l-8.75,20.25l0.75,24l16.5,-16.5l6,-12.5" id="svg_2" fill="url(#svg_68)" stroke="#000000" stroke-width="2"/>
    <path d="m39.5,28.5c-2,-9.25 -10.25,-11.75 -17,-7.4375l0.4843,24.4414l16.5157,-17.0039z" id="svg_65" fill="#fce0a9" stroke="#000000" stroke-width="2"/>
    <path d="m26.9318,41.1745c-0.4491,-2.3511 -2.3021,-2.9866 -3.8181,-1.8905l0.1087,6.2126l3.7094,-4.3221z" fill="#000000" stroke="#000000" stroke-width="2" id="svg_43"/>
   </svg>
  </g>
  <g id="circle">
   <svg id="svg_317" viewBox="0 0 54 54" xmlns="http://www.w3.org/2000/svg" xmlns:xlink="http://www.w3.org/1999/xlink">
    <defs>
     <linearGradient id="svg_72" x1="0.17188" y1="0.1875" x2="1" y2="1">
      <stop offset="0" stop-color="#ffffff"/>
      <stop offset="1" stop-color="#ff6666"/>
     </linearGradient>
    </defs>
    <g id="svg_318">
     <circle cx="27" cy="27" r="23" id="svg_70" fill="url(#svg_72)" stroke="#000000" stroke-width="2"/>
    </g>
   </svg>
  </g>
  <g id="ellipse">
   <svg id="svg_319" viewBox="0 0 32 32" xmlns="http://www.w3.org/2000/svg" xmlns:xlink="http://www.w3.org/1999/xlink">
    <path id="svg_320" d="m16,27.592c-1.565,0 -3.11,-0.173 -4.59,-0.515l0.683,-2.959c1.874,0.433 3.91,0.545 5.863,0.331l0.332,3.018c-0.752,0.083 -1.522,0.125 -2.287,0.125l-0.001,0zm4.447,-0.483l-0.66,-2.964c1.989,-0.443 3.807,-1.24 5.257,-2.306l1.798,2.447c-1.787,1.312 -3.998,2.288 -6.395,2.822l0,0.001zm-11.151,-0.651c-2.385,-0.855 -4.447,-2.163 -5.965,-3.785l2.217,-2.075c1.189,1.271 2.84,2.308 4.773,3.001l-1.024,2.859l-0.001,0zm19.266,-3.672l-2.19,-2.103c1.345,-1.401 2.056,-3.02 2.056,-4.683l-0.001,-0.055l3.036,-0.022l0.001,0.078c0,2.463 -1.004,4.809 -2.902,6.786l0,-0.001zm-26.646,-1.97c-0.915,-1.514 -1.38,-3.134 -1.38,-4.816c0,-0.864 0.126,-1.725 0.374,-2.56l2.91,0.866c-0.165,0.554 -0.248,1.123 -0.248,1.694c0,1.119 0.317,2.212 0.942,3.244l-2.598,1.572zm26.278,-6.457c-0.454,-1.58 -1.56,-3.044 -3.197,-4.233l1.785,-2.457c2.189,1.591 3.687,3.613 4.33,5.85l-2.918,0.84zm-23.708,-1.556l-2.61,-1.552c1.15,-1.934 2.989,-3.593 5.319,-4.797l1.394,2.697c-1.825,0.944 -3.244,2.207 -4.103,3.652zm18.979,-3.623c-1.636,-0.855 -3.563,-1.421 -5.572,-1.635l0.322,-3.02c2.385,0.255 4.687,0.933 6.657,1.964l-1.408,2.69l0.001,0.001zm-13.201,-0.759l-1.036,-2.855c2.118,-0.769 4.396,-1.159 6.772,-1.159l0.034,0l0,3.036l-0.034,0c-2.022,0 -3.951,0.329 -5.736,0.977l0,0.001z" fill="#aeaeae" class="path1"/>
   </svg>
  </g>
  <g id="fh_ellipse">
   <svg id="svg_321" viewBox="0 0 32 32" xmlns:xlink="http://www.w3.org/1999/xlink" xmlns="http://www.w3.org/2000/svg">
    <path id="svg_322" d="m16,27.592c-1.565,0 -3.11,-0.173 -4.59,-0.515l0.683,-2.959c1.874,0.433 3.91,0.545 5.863,0.331l0.332,3.018c-0.752,0.083 -1.522,0.125 -2.287,0.125l-0.001,0zm4.447,-0.483l-0.66,-2.964c1.989,-0.443 3.807,-1.24 5.257,-2.306l1.798,2.447c-1.787,1.312 -3.998,2.288 -6.395,2.822l0,0.001zm-11.151,-0.651c-2.385,-0.855 -4.447,-2.163 -5.965,-3.785l2.217,-2.075c1.189,1.271 2.84,2.308 4.773,3.001l-1.024,2.859l-0.001,0zm19.266,-3.672l-2.19,-2.103c1.345,-1.401 2.056,-3.02 2.056,-4.683l-0.001,-0.055l3.036,-0.022l0.001,0.078c0,2.463 -1.004,4.809 -2.902,6.786l0,-0.001zm-26.646,-1.97c-0.915,-1.514 -1.38,-3.134 -1.38,-4.816c0,-0.864 0.126,-1.725 0.374,-2.56l2.91,0.866c-0.165,0.554 -0.248,1.123 -0.248,1.694c0,1.119 0.317,2.212 0.942,3.244l-2.598,1.572zm26.278,-6.457c-0.454,-1.58 -1.56,-3.044 -3.197,-4.233l1.785,-2.457c2.189,1.591 3.687,3.613 4.33,5.85l-2.918,0.84zm-23.708,-1.556l-2.61,-1.552c1.15,-1.934 2.989,-3.593 5.319,-4.797l1.394,2.697c-1.825,0.944 -3.244,2.207 -4.103,3.652zm18.979,-3.623c-1.636,-0.855 -3.563,-1.421 -5.572,-1.635l0.322,-3.02c2.385,0.255 4.687,0.933 6.657,1.964l-1.408,2.69l0.001,0.001zm-13.201,-0.759l-1.036,-2.855c2.118,-0.769 4.396,-1.159 6.772,-1.159l0.034,0l0,3.036l-0.034,0c-2.022,0 -3.951,0.329 -5.736,0.977l0,0.001z" fill="#aeaeae" class="path1"/>
   </svg>
  </g>
  <g id="pencil">
   <svg id="svg_323" viewBox="0 0 32 32" xmlns:xlink="http://www.w3.org/1999/xlink" xmlns="http://www.w3.org/2000/svg">
    <path id="svg_324" d="m6.625,18.044l-3.263,9.936l4.361,-4.377c-0.3,-0.757 -0.226,-2.05 0.387,-2.662c0.821,-0.822 2.173,-0.803 2.994,0.019s0.866,2.198 0.045,3.02c-0.625,0.625 -1.998,0.661 -2.764,0.337l-4.323,4.335l9.701,-3.408l3.533,-6.364l-4.304,-4.246l-6.367,3.41zm16.356,-14.695c0,0 -6.011,6.01 -6.938,6.938c-0.929,0.928 -1.414,4.419 -1.414,4.419l2.695,2.696c0,0 3.403,-0.486 4.375,-1.459s6.938,-6.938 6.938,-6.938l-5.656,-5.656z" fill="#aeaeae" class="path1"/>
   </svg>
  </g>
  <g id="pen">
   <svg id="svg_325" viewBox="0 0 24 24" xmlns:xlink="http://www.w3.org/1999/xlink" xmlns="http://www.w3.org/2000/svg">
    <defs>
     <linearGradient y2="0.39453" x2="0.9375" y1="0.15625" x1="0.46484" id="svg_77">
      <stop stop-color="#f2feff" offset="0"/>
      <stop stop-color="#14609b" offset="1"/>
     </linearGradient>
     <linearGradient y2="0.56641" x2="0.77734" y1="0.26172" x1="0.18359" id="svg_81">
      <stop stop-color="#ffffff" offset="0"/>
      <stop stop-color="#fce564" offset="1"/>
     </linearGradient>
    </defs>
    <line fill="none" stroke="#000000" id="svg_105" y2="21.14149" x2="12.97691" y1="1.49067" x1="0.99844"/>
    <path stroke="#000000" fill="#a0a0a0" id="svg_86" d="m14.05272,13.68732l-1.46451,7.52632l4.03769,-6.32571"/>
    <path stroke="#000000" fill="url(#svg_81)" id="svg_80" d="m13.61215,10.26563c-0.38567,1.05257 -0.60723,2.40261 -0.50403,3.125l4.33468,1.81452c0.46153,-0.30769 1.6129,-1.71371 1.6129,-2.52016"/>
    <path stroke="#000000" fill="url(#svg_77)" id="svg_73" d="m16.61335,1.00028l-3.67325,8.60247l7.10285,3.47318l3.17783,-7.20549"/>
   </svg>
  </g>
  <g id="text">
   <svg id="svg_326" viewBox="0 0 32 32" xmlns:xlink="http://www.w3.org/1999/xlink" xmlns="http://www.w3.org/2000/svg">
    <path id="svg_327" d="m28,0l-24,0c-0.552,0 -1,0.448 -1,1l0,6c0,0.552 0.448,1 1,1l1,0c0.552,0 1,-0.448 1,-1l2,-3l6,0l0,24l-5,2c-0.552,0 -1,0.447 -1,1s0.448,1 1,1l14,0c0.553,0 1,-0.447 1,-1s-0.447,-1 -1,-1l-5,-2l0,-24l6,0l2,3c0,0.552 0.447,1 1,1l1,0c0.553,0 1,-0.448 1,-1l0,-6c0,-0.552 -0.447,-1 -1,-1z" fill="#aeaeae" class="path1"/>
   </svg>
  </g>
  <g id="path">
   <svg id="svg_328" viewBox="0 0 32 32" xmlns:xlink="http://www.w3.org/1999/xlink" xmlns="http://www.w3.org/2000/svg">
    <path id="svg_329" d="m6.435,8.897l-3.226,-0.66l1.127,-5.502l5.61,0.265l-0.155,3.288l-2.795,-0.131l-0.561,2.74zm-0.28,1.371l-3.225,-0.66l-0.922,4.503l3.225,0.66l0.922,-4.503zm-1.801,8.794l0.597,-2.921l-3.224,-0.66l-1.09,5.322l4.786,2.57l1.557,-2.901l-2.627,-1.41l0.001,0zm3.808,2.044l-1.557,2.9l3.881,2.085l1.557,-2.9l-3.881,-2.084l0,-0.001zm7.745,4.159l-2.683,-1.44l-1.557,2.9l4.73,2.539l3.977,-3.605l-2.211,-2.439l-2.255,2.045l-0.001,0zm9.119,-8.269l-4.313,3.911l2.212,2.438l5.081,-4.607l1.22,-5.354l-3.21,-0.731l-0.99,4.342l0,0.001zm0.17,-13.277l-0.155,3.288l2.238,0.105l-0.498,2.185l3.21,0.732l1.371,-6.019l-6.166,-0.291zm-2.885,-0.136l-9.48,-0.447l-0.155,3.289l9.48,0.447l0.155,-3.289z" fill="#aeaeae" class="path1"/>
   </svg>
  </g>
  <g id="add_subpath">
   <svg id="svg_330" viewBox="0 0 124 124" xmlns:xlink="http://www.w3.org/1999/xlink" xmlns="http://www.w3.org/2000/svg">
    <defs>
     <linearGradient y2="1" x2="1" y1="0.28125" x1="0.33594" id="svg_115">
      <stop stop-color="#ffffff" offset="0"/>
      <stop stop-color="#33a533" offset="1"/>
     </linearGradient>
    </defs>
    <g id="svg_331">
     <path stroke-dasharray="null" stroke-width="4" stroke="#000000" fill="url(#svg_115)" id="svg_114" d="m6,103l55,-87c85,33.64 -26,37.12 55,87l-110,0z"/>
     <g id="svg_107">
      <circle cx="45.5" cy="88.5" r="22.63281" id="svg_113" fill="#ffffff" stroke="#000000" stroke-width="5" stroke-dasharray="null"/>
      <line x1="45.5" y1="72.96232" x2="45.5" y2="104.03768" id="svg_112" stroke="#000000" stroke-width="7" stroke-dasharray="null"/>
      <line x1="29.96232" y1="88.5" x2="61.03768" y2="88.5" id="svg_108" stroke="#000000" stroke-width="7" stroke-dasharray="null"/>
     </g>
    </g>
   </svg>
  </g>
  <g id="close_path">
   <svg id="svg_332" viewBox="0 0 300 300" xmlns:xlink="http://www.w3.org/1999/xlink" xmlns="http://www.w3.org/2000/svg">
    <g id="svg_333">
     <path id="svg_334" d="m121.5,40l-84,106l27,115l166,2l29,-111" fill="#ffc8c8" stroke-width="15" stroke="#000"/>
     <line id="svg_335" fill="none" stroke-width="25" stroke="#A00" y2="74" x2="169.5" y1="136" x1="240"/>
     <path id="svg_336" d="m158,65l31,74l-3,-50l51,-3l-79,-21z" fill="#A00"/>
     <g id="svg_337" fill="#0ff" stroke="#00f" stroke-width="15">
      <circle id="svg_338" cx="123" cy="41" r="30"/>
      <circle id="svg_339" cx="40" cy="146" r="30"/>
      <circle id="svg_340" cx="69" cy="260" r="30"/>
      <circle id="svg_341" cx="228" cy="260" r="30"/>
      <circle id="svg_342" cx="260" cy="148" r="30"/>
     </g>
    </g>
   </svg>
  </g>
  <g id="open_path">
   <svg id="svg_343" viewBox="0 0 300 300" xmlns:xlink="http://www.w3.org/1999/xlink" xmlns="http://www.w3.org/2000/svg">
    <g id="svg_344">
     <path id="svg_345" d="m123.5,38l-84,106l27,115l166,2l29,-111" fill="#ffc8c8" stroke-width="15" stroke="#000"/>
     <line id="svg_346" fill="none" stroke-width="10" stroke="#000" y2="24" x2="108.5" y1="153" x1="276.5"/>
     <g id="svg_347" fill="#0ff" stroke="#00f" stroke-width="15">
      <circle id="svg_348" cx="123" cy="41" r="30"/>
      <circle id="svg_349" cx="40" cy="146" r="30"/>
      <circle id="svg_350" cx="69" cy="260" r="30"/>
      <circle id="svg_351" cx="228" cy="260" r="30"/>
      <circle id="svg_352" cx="260" cy="148" r="30"/>
     </g>
     <g id="svg_353" fill="none" stroke-width="15" stroke="#A00">
      <line id="svg_354" y2="150" x2="210" y1="24" x1="168"/>
      <line id="svg_355" y2="150" x2="168" y1="24" x1="210"/>
     </g>
    </g>
   </svg>
  </g>
  <g id="image">
   <svg id="svg_356" viewBox="0 0 32 32" xmlns="http://www.w3.org/2000/svg" xmlns:xlink="http://www.w3.org/1999/xlink">
    <path id="svg_357" d="m24.183,12.057c0,1.623 -1.315,2.938 -2.938,2.938s-2.938,-1.315 -2.938,-2.938c0,-1.623 1.315,-2.938 2.938,-2.938s2.938,1.315 2.938,2.938z" fill="#aeaeae" class="path1"/>
    <path id="svg_358" d="m0.755,4.633l0,22.734l30.491,0l0,-22.734l-30.491,0zm27.666,19.91l-0.43,0c-3.89,-10.725 -7.913,-2.104 -8.779,0l-0.381,0c-8.171,-16.912 -13.272,-7.32 -15.252,-1.727l0,-15.358l24.842,0l0,17.085z" fill="#aeaeae" class="path2"/>
   </svg>
  </g>
  <g id="zoom">
   <svg id="svg_359" viewBox="0 0 32 32" xmlns:xlink="http://www.w3.org/1999/xlink" xmlns="http://www.w3.org/2000/svg">
    <path id="svg_360" d="m31.715,28.953c0.381,0.381 0.381,0.999 0,1.381l-1.381,1.381c-0.382,0.381 -1,0.381 -1.381,0l-9.668,-9.668c-0.105,-0.105 -0.175,-0.229 -0.222,-0.361c-1.983,1.449 -4.418,2.314 -7.063,2.314c-6.627,0 -12,-5.373 -12,-12s5.373,-12 12,-12c6.627,0 12,5.373 12,12c0,2.645 -0.865,5.08 -2.314,7.063c0.132,0.047 0.256,0.116 0.361,0.222l9.668,9.668zm-19.715,-24.953c-4.418,0 -8,3.582 -8,8s3.582,8 8,8s8,-3.582 8,-8c0,-4.418 -3.582,-8 -8,-8z" fill="#aeaeae" class="path1"/>
   </svg>
  </g>
  <g id="arrow_right">
   <svg id="svg_361" viewBox="0 0 25 50" xmlns="http://www.w3.org/2000/svg" xmlns:xlink="http://www.w3.org/1999/xlink">
    <path id="svg_362" d="m0,0l0,50l25,-25l-25,-25z" fill="#000000" stroke="#000000"/>
   </svg>
  </g>
  <g id="arrow_right_big">
   <svg id="svg_363" viewBox="0 0 40 50" xmlns="http://www.w3.org/2000/svg" xmlns:xlink="http://www.w3.org/1999/xlink">
    <path id="svg_364" d="m0,0l0,50l25,-25l-25,-25z" fill="#000000" stroke="#000000"/>
   </svg>
  </g>
  <g id="arrow_down">
   <svg id="svg_365" viewBox="0 0 50 40" xmlns:xlink="http://www.w3.org/1999/xlink" xmlns="http://www.w3.org/2000/svg">
    <path id="svg_366" stroke="#000000" fill="#000000" d="m14,-12l0,50l25,-25l-25,-25z" transform="rotate(90 26.000000000000004,13.000000000000002) "/>
   </svg>
  </g>
  <g id="fill">
   <svg id="svg_367" viewBox="0 0 32 32" xmlns:xlink="http://www.w3.org/1999/xlink" xmlns="http://www.w3.org/2000/svg">
    <path id="svg_368" d="m31.538,16.874l-15.101,-15.101l-8.969,8.969c-0.061,-0.003 -6.592,1.908 -6.011,4.647c0.134,0.627 0.584,1.202 0.824,1.788c0.49,1.199 -0.191,2.444 -0.747,3.484c-0.787,1.474 -1.79,3.029 -1.042,4.732c1.315,2.991 4.619,0.923 5.312,-1.461c0.679,-2.337 -0.359,-4.29 -0.568,-6.606c-0.017,-0.189 -0.024,-0.367 -0.028,-0.542l13.209,13.209c0.312,0.312 0.818,0.312 1.129,0l11.991,-11.991c0.311,-0.312 0.311,-0.817 0,-1.129l0.001,0.001zm-7.062,-2.178l-8.236,8.236c-0.239,0.239 -0.626,0.239 -0.865,0l-4.432,-4.432c-0.239,-0.238 -0.239,-0.626 0,-0.865l8.236,-8.236c0.239,-0.239 0.626,-0.239 0.865,0l4.432,4.432c0.238,0.239 0.238,0.627 0,0.865z" fill="#aeaeae" class="path1"/>
   </svg>
  </g>
  <g id="stroke">
   <svg id="svg_369" height="50" width="50" xmlns="http://www.w3.org/2000/svg">
    <rect id="svg_116" height="32.75" width="32.75" y="8.625" x="8.625" stroke-width="10" stroke="#707070" fill="none"/>
   </svg>
  </g>
  <g id="opacity">
   <svg id="svg_370" height="50" width="50" xmlns="http://www.w3.org/2000/svg">
    <defs>
     <linearGradient id="svg_118" x1="0.1" y1="0.9" x2="0.9" y2="0.1">
      <stop offset="0" stop-color="#000000"/>
      <stop offset="1" stop-color="#000000" stop-opacity="0"/>
     </linearGradient>
    </defs>
    <rect fill="#ffffff" x="0" y="0" width="50" height="50" id="svg_122"/>
    <rect fill="#a0a0a0" x="0" y="0" width="25" height="25" id="svg_120"/>
    <rect fill="#a0a0a0" x="25" y="25" width="25" height="25" id="svg_119"/>
    <rect fill="url(#svg_118)" stroke="url(#svg_118)" stroke-width="2" x="0" y="0" width="50" height="50" id="svg_117"/>
   </svg>
  </g>
  <g id="new_image">
   <svg id="svg_371" viewBox="0 0 32 32" xmlns:xlink="http://www.w3.org/1999/xlink" xmlns="http://www.w3.org/2000/svg">
    <path id="svg_372" d="m21.118,10.881l0,-9.756l-19.993,0l0,19.993l9.756,0l0,9.756l19.993,0l0,-19.993l-9.756,0zm-2,8.238l-15.993,0l0,-15.993l15.993,0l0,15.993z" fill="#000" class="path1"/>
   </svg>
  </g>
  <g id="save">
   <svg id="svg_373" viewBox="0 0 24 24" xmlns="http://www.w3.org/2000/svg" xmlns:xlink="http://www.w3.org/1999/xlink">
    <defs>
     <linearGradient id="svg_128" x1="0" y1="0" x2="1" y2="0">
      <stop offset="0" stop-color="#727272"/>
      <stop offset="1" stop-color="#d6d6d6"/>
     </linearGradient>
     <linearGradient id="svg_125" x1="0.04297" y1="0.00391" x2="0.21484" y2="0.875">
      <stop offset="0" stop-color="#81bbf4"/>
      <stop offset="1" stop-color="#376eb7"/>
     </linearGradient>
    </defs>
    <path d="m1.51669,22.3458l21.13245,-0.10111l0,-6.06673l-2.62892,-9.80789l-16.27907,0.10111l-2.32558,9.20121l0.10111,6.67341l0.00001,0z" id="svg_129" fill="#e0e0e0" stroke="#202020"/>
    <rect x="2.42667" y="16.58227" width="19.21031" height="4.75108" id="svg_127" fill="url(#svg_128)" stroke="#efefef"/>
    <path d="m4.55005,11.12235l0.70779,-2.83114l13.04348,0l0.70779,3.13448c-0.70779,2.52781 -4.04479,3.84227 -7.17897,3.84227c-2.72977,0 -6.37007,-1.41557 -7.28008,-4.1456l-0.00001,-0.00001z" id="svg_126" fill="#c0c0c0" stroke="#ffffff"/>
    <path d="m7.14286,9.74903l5.21236,5.79151l5.50193,-5.88803l-2.50965,-0.09653l0,-2.79923c0,-2.3166 -2.3166,-5.59846 -6.56371,-5.59846c-4.05405,0 -6.27413,3.37838 -6.56371,6.75676c0.48263,-1.5444 2.7027,-4.53668 4.44015,-4.44015c2.12355,-0.09653 2.79923,1.64093 2.79923,3.37838l0.09653,2.79923l-2.41313,0.09653l0,-0.00001z" id="svg_124" fill="url(#svg_125)" stroke="#285582"/>
   </svg>
  </g>
  <g id="export">
   <svg id="svg_374" height="24" width="24" xmlns="http://www.w3.org/2000/svg">
    <defs>
     <linearGradient y2="0.53516" x2="0.09375" y1="0.51172" x1="0.77734" id="svg_131">
      <stop stop-color="#81bbf4" offset="0"/>
      <stop stop-color="#376eb7" offset="1"/>
     </linearGradient>
    </defs>
    <g id="svg_375">
     <rect stroke="#606060" fill="#eaeaea" id="svg_135" height="21.51735" width="15.76465" y="1.3603" x="7.22599"/>
     <circle id="svg_134" r="4.69727" cy="11.1278" cx="17.4206" stroke-width="0.5" fill="#31abed"/>
     <path id="svg_133" d="m9.67673,20.24302l7.38701,-6.80778l2.91746,6.71323" stroke-width="0.5" fill="#ffcc00"/>
     <rect id="svg_132" height="5.74652" width="5.74652" y="2.94914" x="9.5385" stroke-width="0.5" fill="#ff5555"/>
     <path stroke="#285582" fill="url(#svg_131)" id="svg_130" d="m6.13727,17.94236l5.77328,-4.91041l-5.86949,-5.1832l-0.09622,2.36426l-4.64805,-0.06751l-0.04665,5.54694l4.79093,-0.02342l0.09623,2.27334l-0.00003,0z"/>
    </g>
   </svg>
  </g>
  <g id="open">
   <svg id="svg_376" viewBox="0 0 22 22" xmlns:xlink="http://www.w3.org/1999/xlink" xmlns="http://www.w3.org/2000/svg">
    <defs>
     <linearGradient id="svg_140" x1="0.42578" y1="0.14063" x2="0.65234" y2="0.91406">
      <stop offset="0" stop-color="#81bbf4"/>
      <stop offset="1" stop-color="#376eb7"/>
     </linearGradient>
    </defs>
    <rect stroke="#606060" fill="#c0c0c0" id="svg_143" height="16.72712" width="9.8" y="3.75" x="1.65"/>
    <rect x="2.89542" y="4.9758" width="6.39585" height="14.17459" id="svg_142" fill="#a0a0a0"/>
    <path stroke="#404040" fill="#e0e0e0" id="svg_141" d="m18.62576,4.54365l0,6.91443l-9.9395,0l-0.08643,-10.11236l6.828,0l3.19792,3.19793l0.00001,0z"/>
    <path stroke="#285582" fill="url(#svg_140)" id="svg_139" d="m2.95,20.53644l1.65,-12.03644l16.2,0l-1.5,12l-16.35,0.03643l0,0.00001z"/>
    <line x1="10.32844" y1="4.28436" x2="13.95851" y2="4.28436" id="svg_138" stroke="#606060" fill="none"/>
    <line x1="10.32844" y1="6.53155" x2="14.82282" y2="6.53155" id="svg_137" stroke="#606060" fill="none"/>
    <path d="m15.25895,1.95069l-0.00401,2.85225l2.89558,0.00004l-2.89157,-2.85229z" id="svg_136" fill="#ffffff"/>
   </svg>
  </g>
  <g id="import">
   <svg id="svg_377" viewBox="0 0 24 24" xmlns:xlink="http://www.w3.org/1999/xlink" xmlns="http://www.w3.org/2000/svg">
    <defs>
     <linearGradient id="svg_145" x1="0.04297" y1="0.00391" x2="0.21484" y2="0.875">
      <stop offset="0" stop-color="#81f4bb"/>
      <stop offset="1" stop-color="#37b76e"/>
     </linearGradient>
    </defs>
    <rect stroke="#606060" fill="#eaeaea" id="svg_146" height="21" width="18" y="1.6692" x="2.42792"/>
    <path d="m7.14286,12.74903l5.21236,5.79151l5.50193,-5.88803l-2.50965,-0.09653l0,-2.79923c0,-2.3166 -2.3166,-5.59846 -6.56371,-5.59846c-4.05405,0 -6.27413,3.37838 -6.56371,6.75676c0.48263,-1.5444 2.7027,-4.53668 4.44015,-4.44015c2.12355,-0.09653 2.79923,1.64093 2.79923,3.37838l0.09653,2.79923l-2.41313,0.09653l0,-0.00001z" id="svg_144" fill="url(#svg_145)" stroke="#285582"/>
   </svg>
  </g>
  <g id="docprops">
   <svg id="svg_378" viewBox="0 0 24 24" xmlns="http://www.w3.org/2000/svg" xmlns:xlink="http://www.w3.org/1999/xlink">
    <defs>
     <linearGradient id="svg_149" x1="1" y1="0.5" x2="1" y2="1">
      <stop offset="0" stop-color="#606060"/>
      <stop offset="1" stop-color="#5e5e5e" stop-opacity="0"/>
     </linearGradient>
    </defs>
    <rect x="2.42792" y="1.6692" width="18" height="21" id="svg_157" fill="#eaeaea" stroke="#606060"/>
    <line x1="6.696" y1="4.37757" x2="14.89023" y2="4.37757" id="svg_156" stroke="#a0a0a0" fill="none"/>
    <line x1="6.6948" y1="7.10804" x2="12.92026" y2="7.10804" id="svg_155" stroke="#a0a0a0" fill="none"/>
    <line x1="6.6942" y1="9.84241" x2="15.64716" y2="9.84241" id="svg_154" stroke="#a0a0a0" fill="none"/>
    <line x1="6.69691" y1="12.36585" x2="13.21805" y2="12.36585" id="svg_153" stroke="#a0a0a0" fill="none"/>
    <line x1="6.69691" y1="15.06507" x2="14.43591" y2="15.06507" id="svg_152" stroke="#a0a0a0" fill="none"/>
    <line x1="6.69691" y1="17.84241" x2="13.36979" y2="17.84241" id="svg_151" stroke="#a0a0a0" fill="none"/>
    <g id="svg_147">
     <path d="m11.24329,8.73944l0,2.79974l2.53499,0.07777l0,-2.95528c1.78134,0.07777 2.26093,1.39987 2.12391,2.95528c-0.06851,1.63318 -1.30175,3.49967 -3.49418,3.26636c-2.19242,-0.31108 -2.87755,-1.39987 -3.15161,-2.72197c-0.27406,-1.39987 0.41108,-3.34413 1.98689,-3.4219z" id="svg_150" fill="#606060" transform="rotate(-45 12.544799804687504,11.708499908447267) "/>
     <rect x="15.04047" y="12.746" width="2.57974" height="4.85445" id="svg_148" fill="url(#svg_149)" transform="rotate(-45 16.248500823974602,15.173199653625488) " opacity="0.95"/>
    </g>
   </svg>
  </g>
  <g id="source">
   <svg id="svg_379" viewBox="0 0 55 52" xmlns="http://www.w3.org/2000/svg" xmlns:xlink="http://www.w3.org/1999/xlink">
    <text font-weight="bold" x="28.23" y="15" id="svg_164" fill="#019191" font-size="24" font-family="monospace" text-anchor="middle" xml:space="preserve">s</text>
    <text font-weight="bold" x="28.23" y="30" id="svg_163" fill="#019191" font-size="24" font-family="monospace" text-anchor="middle" xml:space="preserve">v</text>
    <text font-weight="bold" x="28.23" y="44" id="svg_162" fill="#019191" font-size="24" font-family="monospace" text-anchor="middle" xml:space="preserve">g</text>
    <line x1="5" y1="25" x2="16" y2="43" id="svg_161" stroke="#aa0000" fill="none" stroke-width="3"/>
    <line x1="5" y1="26" x2="16" y2="8" stroke="#aa0000" fill="none" stroke-width="3" id="svg_160"/>
    <line x1="50" y1="25" x2="39" y2="43" stroke="#aa0000" fill="none" stroke-width="3" id="svg_159"/>
    <line x1="51" y1="26" x2="39" y2="8" stroke="#aa0000" fill="none" stroke-width="3" id="svg_158"/>
   </svg>
  </g>
  <g id="wireframe">
   <svg id="svg_380" viewBox="0 0 24 24" xmlns="http://www.w3.org/2000/svg" xmlns:xlink="http://www.w3.org/1999/xlink">
    <circle cx="9.5" cy="9.5" r="8" id="svg_166" fill="none" stroke="#000000"/>
    <rect x="8.5" y="8.5" width="14" height="14" id="svg_165" fill="none" stroke="#000000"/>
   </svg>
  </g>
  <g id="undo">
   <svg id="svg_381" viewBox="0 0 24 24" xmlns:xlink="http://www.w3.org/1999/xlink" xmlns="http://www.w3.org/2000/svg">
    <defs>
     <linearGradient y2="0.875" x2="0.21484" y1="0.00391" x1="0.04297" id="svg_168">
      <stop stop-color="#f7f963" offset="0"/>
      <stop stop-color="#d3c310" offset="1"/>
     </linearGradient>
    </defs>
    <path stroke="#b7a800" fill="url(#svg_168)" id="svg_167" d="m6.70188,10.72562l6.55493,-7.13388l6.65817,7.24912l-3.79441,0.03193l0,2.72259c-0.04257,2.74017 -2.76516,5.83068 -7.81235,6.02135c-5.18575,0 -7.1226,-3.75464 -7.49302,-7.41944c0.61736,1.6754 3.14913,3.78397 5.3716,3.67918c2.71635,0.1048 4.41501,-0.61714 4.41501,-2.50184l0,-2.64901l-3.89995,0l0.00002,0z" transform="rotate(-90 10.301699638366701,11.552599906921387) "/>
   </svg>
  </g>
  <g id="redo">
   <svg id="svg_382" viewBox="0 0 24 24" xmlns:xlink="http://www.w3.org/1999/xlink" xmlns="http://www.w3.org/2000/svg">
    <defs>
     <linearGradient id="svg_170" x1="1" y1="0" x2="1" y2="1">
      <stop offset="0" stop-color="#98fc46"/>
      <stop offset="1" stop-color="#56aa25"/>
     </linearGradient>
    </defs>
    <path stroke="#44aa00" fill="url(#svg_170)" id="svg_169" d="m9.11294,12.43144l6.54089,6.84566l6.6439,-6.95624l-3.78628,-0.03064l0,-2.61259c-0.04248,-2.62946 -2.75924,-5.5951 -7.79561,-5.77807c-5.17464,0 -7.10734,3.60294 -7.47697,7.11967c0.61604,-1.60771 3.14238,-3.63109 5.36009,-3.53053c2.71053,-0.10056 4.40555,0.59221 4.40555,2.40076l0,2.54198l-3.89159,0l0.00002,0z" transform="rotate(-90 12.729900360107424,11.552599906921387) "/>
   </svg>
  </g>
  <g id="clone">
   <svg id="svg_383" viewBox="0 0 32 32" xmlns="http://www.w3.org/2000/svg" xmlns:xlink="http://www.w3.org/1999/xlink">
    <path id="svg_384" d="m21.118,10.881l0,-9.756l-19.993,0l0,19.993l9.756,0l0,9.756l19.993,0l0,-19.993l-9.756,0zm-2,8.238l-15.993,0l0,-15.993l15.993,0l0,15.993z" class="path1"/>
   </svg>
  </g>
  <g id="delete">
   <svg id="svg_385" viewBox="0 0 32 32" xmlns="http://www.w3.org/2000/svg" xmlns:xlink="http://www.w3.org/1999/xlink">
    <path id="svg_386" d="m25.973,24.533l0.96,0l0,2.4l-2.4,0l0,-0.96l1.44,0l0,-1.44zm-15.093,2.4l3.414,0l0,-0.96l-3.414,0l0,0.96zm6.827,0l3.413,0l0,-0.96l-3.413,0l0,0.96zm-11.68,-2.4l-0.96,0l0,2.4l2.4,0l0,-0.96l-1.44,0l0,-1.44zm0,-6.826l-0.96,0l0,3.413l0.96,0l0,-3.413zm0,-6.827l-0.96,0l0,3.413l0.96,0l0,-3.413zm-0.96,-3.413l0.96,0l0,-1.44l1.44,0l0,-0.96l-2.4,0l0,2.4zm9.226,-2.4l-3.413,0l0,0.96l3.413,0l0,-0.96zm6.827,0l-3.413,0l0,0.96l3.413,0l0,-0.96zm3.413,0l0,0.96l1.44,0l0,1.44l0.96,0l0,-2.4l-2.4,0zm1.44,16.053l0.96,0l0,-3.413l-0.96,0l0,3.413zm0,-6.827l0.96,0l0,-3.413l-0.96,0l0,3.413zm-3.7,-4.3c-0.606,-0.606 -1.589,-0.606 -2.195,0l-4.078,4.078l-4.078,-4.078c-0.607,-0.606 -1.589,-0.606 -2.195,0s-0.607,1.589 0,2.196l4.077,4.077l-4.077,4.077c-0.607,0.607 -0.607,1.589 0,2.196c0.303,0.303 0.7,0.455 1.098,0.455s0.795,-0.152 1.098,-0.455l4.078,-4.078l4.078,4.078c0.303,0.303 0.7,0.455 1.098,0.455s0.794,-0.152 1.098,-0.455c0.607,-0.606 0.607,-1.589 0,-2.196l-4.077,-4.077l4.077,-4.077c0.607,-0.607 0.607,-1.589 0,-2.196l-0.002,0z" class="path1"/>
   </svg>
  </g>
  <g id="go_up">
   <svg id="svg_387" viewBox="0 0 18 18" xmlns="http://www.w3.org/2000/svg" xmlns:xlink="http://www.w3.org/1999/xlink">
    <defs>
     <linearGradient id="svg_172" x1="0" y1="0" x2="0.7" y2="0">
      <stop offset="0" stop-color="#afe853"/>
      <stop offset="1" stop-color="#52a310"/>
     </linearGradient>
    </defs>
    <path d="m5.38492,16.77043l7.07692,0l0,-5.23077l4.15385,0l-7.69231,-10.15385l-7.69231,10.15385l4.15385,0l0,5.23077z" id="svg_171" fill="url(#svg_172)" stroke="#008000"/>
   </svg>
  </g>
  <g id="go_down">
   <svg id="svg_388" viewBox="0 0 18 18" xmlns="http://www.w3.org/2000/svg" xmlns:xlink="http://www.w3.org/1999/xlink">
    <defs>
     <linearGradient id="svg_174" x1="0" y1="0" x2="0.7" y2="0">
      <stop offset="0" stop-color="#afe853"/>
      <stop offset="1" stop-color="#52a310"/>
     </linearGradient>
    </defs>
    <path d="m5.3015,1.69202l6.93483,0l0,5.07323l4.07045,0l-7.53786,9.84803l-7.53786,-9.84803l4.07045,0l0,-5.07323l-0.00001,0z" id="svg_173" fill="url(#svg_174)" stroke="#008000"/>
   </svg>
  </g>
  <g id="context_menu">
   <svg id="svg_389" height="120" width="120" xmlns="http://www.w3.org/2000/svg">
    <path fill="#000" stroke="#000" d="m4.5,46.5l52,0l-26,38l-26,-38z" id="svg_180" stroke-width="0"/>
    <g id="svg_175">
     <line fill="#000" stroke="#000" x1="59.5" y1="27.5" x2="117.5" y2="27.5" id="svg_179" stroke-width="10"/>
     <line fill="#000" stroke="#000" x1="59.5" y1="51.5" x2="117.5" y2="51.5" stroke-width="10" id="svg_178"/>
     <line fill="#000" stroke="#000" x1="59.5" y1="73.5" x2="117.5" y2="73.5" stroke-width="10" id="svg_177"/>
     <line fill="#000" stroke="#000" x1="59.5" y1="97.5" x2="117.5" y2="97.5" stroke-width="10" id="svg_176"/>
    </g>
   </svg>
  </g>
  <g id="move_bottom">
   <svg id="svg_390" viewBox="0 0 32 32" xmlns="http://www.w3.org/2000/svg" xmlns:xlink="http://www.w3.org/1999/xlink">
    <path id="svg_391" d="m0,3.309l0,-1.679c0,-0.309 0.251,-0.56 0.56,-0.56l30.881,0c0.309,0 0.56,0.251 0.56,0.56l0,1.679c0,0.309 -0.251,0.56 -0.56,0.56l-30.881,0c-0.309,0 -0.56,-0.251 -0.56,-0.56zm25.62,3.25l-2.798,0c-0.618,0 -1.119,0.501 -1.119,1.119l0,14.008l-1.821,0c-0.862,0 -1.4,0.933 -0.969,1.679l4.339,7.515c0.431,0.746 1.508,0.746 1.938,0l4.339,-7.515c0.431,-0.746 -0.108,-1.679 -0.969,-1.679l-1.821,0l0,-14.008c0,-0.618 -0.501,-1.119 -1.119,-1.119zm-16.789,0l-2.798,0c-0.618,0 -1.119,0.501 -1.119,1.119l0,14.008l-1.821,0c-0.862,0 -1.4,0.933 -0.969,1.679l4.339,7.515c0.431,0.746 1.508,0.746 1.938,0l4.339,-7.515c0.431,-0.746 -0.108,-1.679 -0.969,-1.679l-1.821,0l0,-14.008c0,-0.618 -0.501,-1.119 -1.119,-1.119z" class="path1"/>
   </svg>
  </g>
  <g id="move_top">
   <svg id="svg_392" viewBox="0 0 32 32" xmlns:xlink="http://www.w3.org/1999/xlink" xmlns="http://www.w3.org/2000/svg">
    <path id="svg_393" d="m32,28.946l0,1.679c0,0.309 -0.251,0.56 -0.56,0.56l-30.881,0c-0.309,0 -0.56,-0.251 -0.56,-0.56l0,-1.679c0,-0.309 0.251,-0.56 0.56,-0.56l30.881,0c0.309,0 0.56,0.251 0.56,0.56zm-25.62,-3.25l2.798,0c0.618,0 1.119,-0.501 1.119,-1.119l0,-14.008l1.821,0c0.862,0 1.4,-0.933 0.969,-1.679l-4.339,-7.515c-0.431,-0.746 -1.508,-0.746 -1.938,0l-4.339,7.515c-0.431,0.746 0.108,1.679 0.969,1.679l1.821,0l0,14.008c0,0.618 0.501,1.119 1.119,1.119zm16.789,0l2.798,0c0.618,0 1.119,-0.501 1.119,-1.119l0,-14.008l1.821,0c0.862,0 1.4,-0.933 0.969,-1.679l-4.339,-7.515c-0.431,-0.746 -1.508,-0.746 -1.938,0l-4.339,7.515c-0.431,0.746 0.108,1.679 0.969,1.679l1.821,0l0,14.008c0,0.618 0.501,1.119 1.119,1.119z" class="path1"/>
   </svg>
  </g>
  <g id="to_path">
   <svg id="svg_394" viewBox="0 0 32 32" xmlns:xlink="http://www.w3.org/1999/xlink" xmlns="http://www.w3.org/2000/svg">
    <path id="svg_395" d="m22.596,22.207l0,1.013c-1.006,-0.036 -2.303,-0.284 -3.398,-1.154c-1.149,-0.913 -1.878,-2.363 -2.183,-4.321l0,-0.341l0.777,0l0,-3.883l-0.777,0l0,-10.12c0.469,-0.32 0.777,-0.858 0.777,-1.469c0,-0.982 -0.796,-1.777 -1.777,-1.777s-1.777,0.796 -1.777,1.777c0,0.611 0.308,1.149 0.777,1.469l0,5.192c-0.365,-0.484 -0.783,-0.909 -1.256,-1.267c-1.443,-1.093 -3.086,-1.36 -4.355,-1.359l0,-0.934l-3.883,0l0,3.983l3.883,0l0,-1.047c0.941,-0.001 2.146,0.186 3.16,0.96c1.185,0.905 1.911,2.447 2.174,4.592l-0.829,0l0,3.883l1.044,0c0.018,0.161 0.039,0.319 0.062,0.476l0,10.723c-0.469,0.32 -0.777,0.858 -0.777,1.469c0,0.982 0.796,1.777 1.777,1.777s1.777,-0.796 1.777,-1.777c0,-0.611 -0.309,-1.149 -0.777,-1.469l0,-5.879c0.286,0.332 0.596,0.638 0.938,0.909c1.531,1.216 3.301,1.549 4.643,1.588l0,0.971l3.883,0l0,-3.983l-3.883,0l0,-0.002z" class="path1"/>
   </svg>
  </g>
  <g id="link_controls">
   <svg id="svg_396" viewBox="0 0 24 24" xmlns="http://www.w3.org/2000/svg" xmlns:xlink="http://www.w3.org/1999/xlink">
    <path fill="none" stroke="#8dd35f" d="m9.875,23c-2,-4.25 -1.6875,-7.375 1.6875,-10.5c3.375,-3.125 7.5625,-2.75 11.0625,2" id="svg_185" stroke-width="2"/>
    <line x1="4" y1="19" x2="19" y2="4" id="svg_184" stroke="#606060" fill="none"/>
    <circle cx="11.5" cy="11.5" r="2.17578" id="svg_183" fill="#00ffff" stroke="#0000ff"/>
    <circle cx="19" cy="4" r="2.26172" fill="#00ffff" stroke="#0000ff" id="svg_182" stroke-width="0.5"/>
    <circle cx="4" cy="19" r="2.26172" fill="#00ffff" stroke="#0000ff" stroke-width="0.5" id="svg_181"/>
   </svg>
  </g>
  <g id="reorient">
   <svg id="svg_397" viewBox="0 0 32 32" xmlns="http://www.w3.org/2000/svg" xmlns:xlink="http://www.w3.org/1999/xlink">
    <path id="svg_398" d="m29.61,9.015c-0.693,-1.231 -1.556,-2.366 -2.564,-3.376c-2.943,-2.943 -6.864,-4.564 -11.038,-4.564s-8.094,1.621 -11.037,4.564c-5.589,5.589 -6.125,14.474 -1.248,20.666l0.777,0.986l-3.245,3.245l8.989,0l0,-8.99l-3.337,3.337l-0.96,-1.416c-3.251,-4.797 -2.629,-11.261 1.479,-15.371c2.289,-2.288 5.336,-3.548 8.581,-3.548c3.246,0 6.293,1.261 8.581,3.549c2.288,2.286 3.548,5.334 3.548,8.58c0,3.244 -1.26,6.291 -3.548,8.58c-1.049,1.047 -2.257,1.882 -3.592,2.484l-0.032,0.015l1.426,3.169l0.03,-0.014c1.721,-0.774 3.276,-1.849 4.624,-3.197c4.932,-4.93 5.986,-12.619 2.565,-18.699l0.001,0z" class="path1"/>
    <path id="svg_399" d="m21.146,16.691c0,2.842 -2.304,5.146 -5.146,5.146s-5.146,-2.304 -5.146,-5.146c0,-2.842 2.304,-5.146 5.146,-5.146s5.146,2.304 5.146,5.146z" class="path2"/>
   </svg>
  </g>
  <g id="group_elements">
   <svg id="svg_400" viewBox="0 0 16 16" xmlns:xlink="http://www.w3.org/1999/xlink" xmlns="http://www.w3.org/2000/svg">
    <defs>
     <linearGradient y2="1" x2="1" y1="0" x1="0" id="svg_190">
      <stop stop-color="#ccddff" offset="0"/>
      <stop stop-color="#789fed" offset="1"/>
     </linearGradient>
     <linearGradient y2="1" x2="1" y1="0" x1="0" id="svg_188">
      <stop stop-color="#70a1e5" offset="0"/>
      <stop stop-color="#4b6baf" offset="1"/>
     </linearGradient>
    </defs>
    <rect id="svg_194" stroke="#555555" fill="#a0a0a0" height="2" width="2" y="0.5" x="13.5"/>
    <rect id="svg_193" stroke="#555555" fill="#a0a0a0" height="2" width="2" y="13.5" x="13.5"/>
    <rect id="svg_192" stroke="#555555" fill="#a0a0a0" height="2" width="2" y="13.5" x="0.5"/>
    <rect id="svg_191" stroke="#555555" fill="#a0a0a0" height="7" width="8" y="2.5" x="2.5"/>
    <rect id="svg_189" stroke="url(#svg_188)" fill="url(#svg_190)" height="7" width="8" y="2.5" x="2.5"/>
    <rect stroke="url(#svg_188)" fill="#7399d6" id="svg_187" height="7" width="8" y="6.5" x="5.5"/>
    <rect stroke="#555555" fill="#a0a0a0" id="svg_186" height="2" width="2" y="0.5" x="0.5"/>
   </svg>
  </g>
  <g id="ungroup">
   <svg id="svg_401" viewBox="0 0 16 16" xmlns:xlink="http://www.w3.org/1999/xlink" xmlns="http://www.w3.org/2000/svg">
    <defs>
     <linearGradient y2="1" x2="1" y1="0" x1="0" id="svg_205">
      <stop stop-color="#ccddff" offset="0"/>
      <stop stop-color="#789fed" offset="1"/>
     </linearGradient>
     <linearGradient y2="1" x2="1" y1="0" x1="0" id="svg_203">
      <stop stop-color="#70a1e5" offset="0"/>
      <stop stop-color="#4b6baf" offset="1"/>
     </linearGradient>
    </defs>
    <rect id="svg_204" stroke="url(#svg_203)" fill="url(#svg_205)" height="7" width="8" y="2.5" x="2.5"/>
    <rect stroke="url(#svg_203)" fill="#7399d6" id="svg_202" height="7" width="8" y="6.5" x="5.5"/>
    <rect id="svg_201" stroke="#555555" fill="#a0a0a0" height="2" width="2" y="1.5" x="9.5"/>
    <rect id="svg_200" stroke="#555555" fill="#a0a0a0" height="2" width="2" y="8.5" x="1.5"/>
    <rect stroke="#555555" fill="#a0a0a0" id="svg_199" height="2" width="2" y="1.5" x="1.5"/>
    <rect stroke="#555555" fill="#a0a0a0" height="2" width="2" y="5.5" x="12.5" id="svg_198"/>
    <rect stroke="#555555" fill="#a0a0a0" height="2" width="2" y="12.5" x="12.5" id="svg_197"/>
    <rect stroke="#555555" fill="#a0a0a0" height="2" width="2" y="12.5" x="4.5" id="svg_196"/>
    <rect stroke="#555555" fill="#a0a0a0" height="2" width="2" y="5.5" x="4.5" id="svg_195"/>
   </svg>
  </g>
  <g id="unlink_use">
   <svg id="svg_402" height="222" width="222" xmlns="http://www.w3.org/2000/svg">
    <path fill="none" stroke="#3f3f3f" stroke-width="13" d="m93.75,118.44922c-4.5,13.58447 -14.66553,11.5 -28.25,11.5l-34,0c-13.58447,0 -24.5,-7.16553 -24.5,-21.5c0,-14.33447 10.91553,-20.5 24.5,-20.5l34,0c13.58447,0 19.75,-2.33447 26.5,10.75" id="svg_215"/>
    <g id="svg_211">
     <line fill="none" stroke="#007fff" stroke-width="8" stroke-linecap="round" x1="45.41017" y1="28.27895" x2="83.07683" y2="65.94563" id="svg_214"/>
     <line fill="none" stroke="#007fff" stroke-width="8" stroke-linecap="round" x1="109.41467" y1="65.94638" x2="109.41467" y2="15.01293" id="svg_213"/>
     <line fill="none" stroke="#007fff" stroke-width="8" stroke-linecap="round" x1="140.96227" y1="65.94638" x2="177.58937" y2="29.31928" id="svg_212"/>
    </g>
    <g transform="rotate(-180 108.00000000000001,172.11099243164062) " id="svg_207">
     <line id="svg_210" fill="none" stroke="#007fff" stroke-width="8" stroke-linecap="round" x1="41.91017" y1="153.27895" x2="79.57683" y2="190.94563"/>
     <line id="svg_209" fill="none" stroke="#007fff" stroke-width="8" stroke-linecap="round" x1="105.91467" y1="190.94638" x2="105.91467" y2="140.01293"/>
     <line id="svg_208" fill="none" stroke="#007fff" stroke-width="8" stroke-linecap="round" x1="137.46227" y1="190.94638" x2="174.08937" y2="154.31928"/>
    </g>
    <path fill="none" stroke="#3f3f3f" stroke-width="13" d="m215.5,118.44901c-4.5,13.58498 -14.6655,11.49999 -28.25,11.49999l-34,0c-13.5845,0 -24.5,-7.16501 -24.5,-21.49999c0,-14.3343 10.9155,-20.4998 24.5,-20.4998l34,0c13.5845,0 19.75,-2.3345 26.5,10.75" id="svg_206" transform="rotate(-180 172.125,108.92600250244139) "/>
   </svg>
  </g>
  <g id="width">
   <svg id="svg_403" height="100" width="100" xmlns="http://www.w3.org/2000/svg">
    <path fill="#000000" stroke="#000000" stroke-width="8" d="m19,42.5l-7.5,7.5l7.5,7.5l0,-15zm0,7.5l62,0l0,-7.5l7.5,7.5l-7.5,7.5l0,-7.5" id="svg_216"/>
   </svg>
  </g>
  <g id="height">
   <svg id="svg_404" height="100" width="100" xmlns="http://www.w3.org/2000/svg">
    <path id="svg_217" d="m19,42.5l-7.5,7.5l7.5,7.5l0,-15zm0,7.5l62,0l0,-7.5l7.5,7.5l-7.5,7.5l0,-7.5" stroke-width="8" stroke="#000000" fill="#000000" transform="rotate(90 50,50.00000000000001) "/>
   </svg>
  </g>
  <g id="c_radius">
   <svg id="svg_405" height="20" width="20" xmlns="http://www.w3.org/2000/svg">
    <rect ry="13" rx="13" id="svg_220" height="43.9375" width="43.9375" y="2.4375" x="2.37501" stroke-width="0.5" fill="none" stroke="#404040"/>
    <path id="svg_219" d="m2.43674,15.88952l13.73722,0l0.08978,-13.46483m0.08978,14.08493" stroke="#000000" fill="none"/>
    <line stroke-dasharray="2,2" id="svg_218" y2="5.20504" x2="5.20504" y1="15.88934" x1="16.35107" stroke="#000000" fill="none"/>
   </svg>
  </g>
  <g id="angle">
   <svg id="svg_406" height="50" width="50" xmlns="http://www.w3.org/2000/svg">
    <path fill="none" stroke="#000000" d="m32.78778,41.03469c-0.40379,-8.68145 -4.50873,-16.79003 -12.11365,-20.5932" id="svg_222" stroke-width="6"/>
    <path fill="none" stroke="#000000" stroke-width="6" d="m29.20348,7.67055l-24.20348,34.47921l41.16472,0" id="svg_221"/>
   </svg>
  </g>
  <g id="blur">
   <svg id="svg_407" height="300" width="300" xmlns="http://www.w3.org/2000/svg">
    <!-- Created with SVG-edit - http://svg-edit.googlecode.com/ -->
    <defs>
     <filter height="200%" width="200%" y="-50%" x="-50%" id="svg_224">
      <feGaussianBlur stdDeviation="25"/>
     </filter>
    </defs>
    <circle filter="url(#svg_224)" id="svg_223" r="91.80151" cy="150" cx="150" stroke-dasharray="null" stroke-width="5" stroke="#000000" fill="#000000"/>
   </svg>
  </g>
  <g id="fontsize">
   <svg id="svg_408" height="50" width="50" xmlns="http://www.w3.org/2000/svg">
    <text text-anchor="middle" font-family="serif" font-size="26" id="svg_226" y="41.4587" x="14.451" fill="#606060">T</text>
    <text id="svg_225" xml:space="preserve" text-anchor="middle" font-family="serif" font-size="52" y="41.8685" x="28.853" fill="#000000">T</text>
   </svg>
  </g>
  <g id="align">
   <svg id="svg_409" viewBox="0 0 32 32" xmlns="http://www.w3.org/2000/svg" xmlns:xlink="http://www.w3.org/1999/xlink">
    <path id="svg_410" d="m1.111,0.919l4.297,0l0,30.161l-4.297,0l0,-30.161z" class="path1"/>
    <path id="svg_411" d="m7.334,4.438l16.23,0l0,9.192l-16.23,0l0,-9.192z" class="path2"/>
    <path id="svg_412" d="m7.334,18.37l23.555,0l0,9.192l-23.555,0l0,-9.192z" class="path3"/>
   </svg>
  </g>
  <g id="align_left">
   <svg id="svg_413" viewBox="0 0 22 22" xmlns="http://www.w3.org/2000/svg" xmlns:xlink="http://www.w3.org/1999/xlink">
    <rect x="2.5" y="2.5" width="12" height="7" id="svg_231" fill="#ffffff" stroke="#606060"/>
    <rect x="2" y="4" width="11" height="4" id="svg_230" fill="#c0c0c0"/>
    <rect x="2.5" y="12.5" width="18" height="7" fill="#ffffff" stroke="#606060" id="svg_229"/>
    <rect x="2" y="14" width="17" height="4" fill="#c0c0c0" id="svg_228"/>
    <rect x="1.5" y="-10" width="2" height="40" id="svg_227" fill="#ef9a23" stroke="#c15909"/>
   </svg>
  </g>
  <g id="align_center">
   <svg id="svg_414" viewBox="0 0 22 22" xmlns:xlink="http://www.w3.org/1999/xlink" xmlns="http://www.w3.org/2000/svg">
    <rect id="svg_236" stroke="#606060" fill="#c0c0c0" height="7" width="18" y="12.5" x="1.5"/>
    <rect stroke="#606060" fill="#c0c0c0" id="svg_235" height="7" width="12" y="2.5" x="4.5"/>
    <rect stroke="#c15909" fill="#ef9a23" id="svg_234" height="40" width="2" y="-10" x="9.5"/>
    <rect id="svg_233" stroke="#ffffff" fill="none" height="5" width="16" y="13.5" x="2.5"/>
    <rect stroke="#ffffff" fill="none" id="svg_232" height="5" width="10" y="3.5" x="5.5"/>
   </svg>
  </g>
  <g id="align_right">
   <svg id="svg_415" viewBox="0 0 22 22" xmlns:xlink="http://www.w3.org/1999/xlink" xmlns="http://www.w3.org/2000/svg">
    <rect stroke="#606060" fill="#ffffff" id="svg_241" height="7" width="12" y="2.5" x="7.5"/>
    <rect fill="#c0c0c0" id="svg_240" height="4" width="11" y="4" x="9"/>
    <rect id="svg_239" stroke="#606060" fill="#ffffff" height="7" width="18" y="12.5" x="1.5"/>
    <rect id="svg_238" fill="#c0c0c0" height="4" width="17" y="14" x="3"/>
    <rect stroke="#c15909" fill="#ef9a23" id="svg_237" height="40" width="2" y="-10" x="18.5"/>
   </svg>
  </g>
  <g id="align_top">
   <svg id="svg_416" viewBox="0 0 22 22" xmlns:xlink="http://www.w3.org/1999/xlink" xmlns="http://www.w3.org/2000/svg">
    <g id="svg_242" transform="rotate(90 11,11.000000000000002) ">
     <rect stroke="#606060" fill="#ffffff" id="svg_247" height="7" width="12" y="3.5" x="2.5"/>
     <rect fill="#c0c0c0" id="svg_246" height="4" width="11" y="5" x="2"/>
     <rect id="svg_245" stroke="#606060" fill="#ffffff" height="7" width="18" y="13.5" x="2.5"/>
     <rect id="svg_244" fill="#c0c0c0" height="4" width="17" y="15" x="2"/>
     <rect stroke="#c15909" fill="#ef9a23" id="svg_243" height="40" width="2" y="-9" x="1.5"/>
    </g>
   </svg>
  </g>
  <g id="align_middle">
   <svg id="svg_417" viewBox="0 0 22 22" xmlns="http://www.w3.org/2000/svg" xmlns:xlink="http://www.w3.org/1999/xlink">
    <g id="svg_248" transform="rotate(90 12,11.500000000000002) ">
     <rect x="3" y="14" width="18" height="7" fill="#c0c0c0" stroke="#606060" id="svg_253"/>
     <rect x="6" y="4" width="12" height="7" id="svg_252" fill="#c0c0c0" stroke="#606060"/>
     <rect x="11" y="-8.5" width="2" height="40" id="svg_251" fill="#ef9a23" stroke="#c15909"/>
     <rect x="4" y="15" width="16" height="5" fill="none" stroke="#ffffff" id="svg_250"/>
     <rect x="7" y="5" width="10" height="5" id="svg_249" fill="none" stroke="#ffffff"/>
    </g>
   </svg>
  </g>
  <g id="align_bottom">
   <svg id="svg_418" viewBox="0 0 22 22" xmlns="http://www.w3.org/2000/svg" xmlns:xlink="http://www.w3.org/1999/xlink">
    <g id="svg_254" transform="rotate(90 11,11.000000000000002) ">
     <rect x="7.5" y="2.5" width="12" height="7" id="svg_259" fill="#ffffff" stroke="#606060"/>
     <rect x="9" y="4" width="11" height="4" id="svg_258" fill="#c0c0c0"/>
     <rect x="1.5" y="12.5" width="18" height="7" fill="#ffffff" stroke="#606060" id="svg_257"/>
     <rect x="3" y="14" width="17" height="4" fill="#c0c0c0" id="svg_256"/>
     <rect x="18.5" y="-10" width="2" height="40" id="svg_255" fill="#ef9a23" stroke="#c15909"/>
    </g>
   </svg>
  </g>
  <g id="linecap_butt">
   <svg id="svg_419" height="100" width="100" xmlns:xlink="http://www.w3.org/1999/xlink" xmlns:se="http://svg-edit.googlecode.com" xmlns="http://www.w3.org/2000/svg">
    <!-- Created with SVG-edit - http://svg-edit.googlecode.com/ -->
    <defs>
     <linearGradient y2="1" x2="0.2" y1="1" x1="0.8" id="svg_263">
      <stop stop-color="#000000" offset="0"/>
      <stop stop-opacity="0" stop-color="#000000" offset="1"/>
     </linearGradient>
    </defs>
    <g id="svg_420">
     <rect transform="rotate(-45 32.214801788330085,68.783203125) " id="svg_262" height="50.3728" width="94.8373" y="43.5974" x="-15.20196" stroke-width="2" stroke="#a0a0a0" fill="url(#svg_263)"/>
     <path fill="none" stroke="#00ffff" stroke-width="3" d="m6.63133,95.07755l59.17514,-59.17514" id="svg_261"/>
     <path fill="#00ffff" d="m51.62893,36.10742l13.05662,-13.05662l13.05661,13.05662l-13.05661,13.05662l-13.05662,-13.05662z" id="svg_260"/>
    </g>
   </svg>
  </g>
  <g id="linecap_square">
   <svg id="svg_421" height="100" width="100" xmlns:xlink="http://www.w3.org/1999/xlink" xmlns:se="http://svg-edit.googlecode.com" xmlns="http://www.w3.org/2000/svg">
    <!-- Created with SVG-edit - http://svg-edit.googlecode.com/ -->
    <defs>
     <linearGradient y2="1" x2="0.2" y1="1" x1="0.8" id="svg_267">
      <stop stop-color="#000000" offset="0"/>
      <stop stop-opacity="0" stop-color="#000000" offset="1"/>
     </linearGradient>
    </defs>
    <g id="svg_422">
     <rect transform="rotate(-45 40.21680068969728,60.783199310302734) " id="svg_266" height="50.3728" width="117.46469" y="35.5974" x="-18.51568" fill="url(#svg_267)"/>
     <path fill="none" stroke="#00ffff" stroke-width="3" d="m6.63133,95.07755l59.17514,-59.17514" id="svg_265"/>
     <path fill="#00ffff" d="m51.62893,36.10742l13.05662,-13.05662l13.05661,13.05662l-13.05661,13.05662l-13.05662,-13.05662z" id="svg_264"/>
    </g>
   </svg>
  </g>
  <g id="linecap_round">
   <svg id="svg_423" height="100" width="100" xmlns:se="http://svg-edit.googlecode.com" xmlns:xlink="http://www.w3.org/1999/xlink" xmlns="http://www.w3.org/2000/svg">
    <!-- Created with SVG-edit - http://svg-edit.googlecode.com/ -->
    <defs>
     <linearGradient id="svg_271" x1="0.8" y1="1" x2="0.2" y2="1">
      <stop offset="0" stop-color="#000000"/>
      <stop offset="1" stop-color="#000000" stop-opacity="0"/>
     </linearGradient>
    </defs>
    <g id="svg_424">
     <path fill="url(#svg_271)" stroke="#a0a0a0" stroke-width="2" d="m-19.0679,34.2946l94.8359,0c36.499,-1.4142 33.67101,48.9569 0,50.3711l-94.8359,0l0,-50.3711z" id="svg_270" transform="rotate(-45 41.51169967651368,59.46480178833007) "/>
     <path fill="none" stroke="#00ffff" stroke-width="3" d="m6.63133,95.07755l59.17515,-59.17515" id="svg_269"/>
     <path fill="#00ffff" d="m51.62893,36.10742l13.05662,-13.05662l13.05661,13.05662l-13.05661,13.05662l-13.05662,-13.05662z" id="svg_268"/>
    </g>
   </svg>
  </g>
  <g id="linejoin_miter">
   <svg id="svg_425" height="100" width="100" xmlns:se="http://svg-edit.googlecode.com" xmlns:xlink="http://www.w3.org/1999/xlink" xmlns="http://www.w3.org/2000/svg">
    <!-- Created with SVG-edit - http://svg-edit.googlecode.com/ -->
    <defs>
     <linearGradient id="svg_275" x1="0.8" y1="1" x2="0.2" y2="1">
      <stop offset="0" stop-color="#000000"/>
      <stop offset="1" stop-color="#000000" stop-opacity="0"/>
     </linearGradient>
    </defs>
    <g id="svg_426">
     <path id="svg_274" d="m-15,-35l75,85l-75,75" stroke-width="49" stroke="url(#svg_275)" fill="none"/>
     <path id="svg_273" d="m44.83592,50.25187l13.05661,-13.05663l13.05661,13.05663l-13.05661,13.05662l-13.05661,-13.05662z" fill="#00ffff" transform="rotate(90 57.89250183105469,50.25189971923829) "/>
     <path fill="none" stroke="#00ffff" stroke-width="3" d="m-15,-35l75,85l-75,75" id="svg_272"/>
    </g>
   </svg>
  </g>
  <g id="linejoin_bevel">
   <svg id="svg_427" height="100" width="100" xmlns:se="http://svg-edit.googlecode.com" xmlns:xlink="http://www.w3.org/1999/xlink" xmlns="http://www.w3.org/2000/svg">
    <!-- Created with SVG-edit - http://svg-edit.googlecode.com/ -->
    <defs>
     <linearGradient id="svg_279" x1="0.8" y1="1" x2="0.2" y2="1">
      <stop offset="0" stop-color="#000000"/>
      <stop offset="1" stop-color="#000000" stop-opacity="0"/>
     </linearGradient>
    </defs>
    <g id="svg_428">
     <path id="svg_278" d="m-15,-35l75,85l-75,75" stroke-width="49" stroke="url(#svg_279)" fill="none" stroke-linejoin="bevel"/>
     <path id="svg_277" d="m44.83592,50.25187l13.05661,-13.05663l13.05661,13.05663l-13.05661,13.05662l-13.05661,-13.05662z" fill="#00ffff" transform="rotate(90 57.89250183105469,50.25189971923829) "/>
     <path fill="none" stroke="#00ffff" stroke-width="3" d="m-15,-35l75,85l-75,75" id="svg_276"/>
    </g>
   </svg>
  </g>
  <g id="linejoin_round">
   <svg id="svg_429" height="100" width="100" xmlns:se="http://svg-edit.googlecode.com" xmlns:xlink="http://www.w3.org/1999/xlink" xmlns="http://www.w3.org/2000/svg">
    <!-- Created with SVG-edit - http://svg-edit.googlecode.com/ -->
    <defs>
     <linearGradient id="svg_283" x1="0.8" y1="1" x2="0.2" y2="1">
      <stop offset="0" stop-color="#000000"/>
      <stop offset="1" stop-color="#000000" stop-opacity="0"/>
     </linearGradient>
    </defs>
    <g id="svg_430">
     <path id="svg_282" d="m-15,-35l75,85l-75,75" stroke-width="49" stroke="url(#svg_283)" fill="none" stroke-linejoin="round"/>
     <path id="svg_281" d="m44.83592,50.25187l13.05661,-13.05663l13.05661,13.05663l-13.05661,13.05662l-13.05661,-13.05662z" fill="#00ffff" transform="rotate(90 57.89250183105469,50.25189971923829) "/>
     <path fill="none" stroke="#00ffff" stroke-width="3" d="m-15,-35l75,85l-75,75" id="svg_280"/>
    </g>
   </svg>
  </g>
  <g id="eye">
   <svg id="svg_431" viewBox="0 0 32 32" xmlns="http://www.w3.org/2000/svg" xmlns:xlink="http://www.w3.org/1999/xlink">
    <path id="svg_432" d="m16,8.641c-8.475,0 -15.345,7.359 -15.345,7.359s6.871,7.359 15.345,7.359c8.475,0 15.345,-7.359 15.345,-7.359s-6.87,-7.359 -15.345,-7.359zm0,10.026c-1.47,0 -2.667,-1.196 -2.667,-2.667s1.196,-2.667 2.667,-2.667s2.667,1.196 2.667,2.667s-1.196,2.667 -2.667,2.667zm-3.142,-6.967c-1.325,0.971 -2.191,2.534 -2.191,4.3c0,1.762 0.862,3.322 2.183,4.294c-3.413,-0.833 -6.372,-2.814 -8.22,-4.299c1.845,-1.488 4.8,-3.467 8.229,-4.295l-0.001,0zm6.292,8.594c1.321,-0.972 2.183,-2.532 2.183,-4.294s-0.862,-3.322 -2.183,-4.294c3.408,0.832 6.365,2.809 8.213,4.294c-1.849,1.485 -4.805,3.462 -8.214,4.294l0.001,0z" class="path1" fill="#000"/>
   </svg>
  </g>
  <g id="no_color">
   <svg id="svg_433" viewBox="0 0 24 24" xmlns="http://www.w3.org/2000/svg" xmlns:xlink="http://www.w3.org/1999/xlink">
    <line x1="0" y1="0" x2="24" y2="24" id="svg_285" stroke="#d40000" fill="none"/>
    <line x1="24" y1="0" x2="0" y2="24" stroke="#d40000" fill="none" id="svg_284"/>
   </svg>
  </g>
  <g id="ok">
   <svg id="svg_434" viewBox="0 0 24 24" xmlns="http://www.w3.org/2000/svg" xmlns:xlink="http://www.w3.org/1999/xlink">
    <defs>
     <linearGradient id="svg_287" x1="0.42969" y1="0.43359" x2="0.94141" y2="0.65625">
      <stop offset="0" stop-color="#38ff45"/>
      <stop offset="1" stop-color="#127c0c"/>
     </linearGradient>
    </defs>
    <path d="m7.9,15.9l4.9,-0.05l0,-13.75l3.8,0l0,17.6l-8.7,0l0,-3.8z" id="svg_286" fill="url(#svg_287)" stroke="#005500" transform="rotate(45 12.000000000000002,10) "/>
   </svg>
  </g>
  <g id="cancel">
   <svg id="svg_435" viewBox="0 0 24 24" xmlns="http://www.w3.org/2000/svg" xmlns:xlink="http://www.w3.org/1999/xlink">
    <defs>
     <linearGradient id="svg_289" x1="0.42969" y1="0.43359" x2="0.94141" y2="0.65625">
      <stop offset="0" stop-color="#ff3838"/>
      <stop offset="1" stop-color="#7a0c0c"/>
     </linearGradient>
    </defs>
    <path transform="rotate(45 11.300000190734874,12.30000019073486) " d="m2.10526,10.52632l7.36842,0l0,-7.36842l3.68421,0l0,7.36842l7.36842,0l0,3.68421l-7.36842,0l0,7.36842l-3.68421,0l0,-7.36842l-7.36842,0l0,-3.68421z" id="svg_288" fill="url(#svg_289)" stroke="#550000"/>
   </svg>
  </g>
  <g id="warning">
   <svg id="svg_436" viewBox="0 0 24 24" xmlns="http://www.w3.org/2000/svg" xmlns:xlink="http://www.w3.org/1999/xlink">
    <defs>
     <linearGradient id="svg_293" x1="0.56641" y1="0.44922" x2="0.57813" y2="0.98047">
      <stop offset="0" stop-color="#ffff00"/>
      <stop offset="1" stop-color="#9e9e00"/>
     </linearGradient>
    </defs>
    <path stroke-width="2" stroke="#916d1f" fill="url(#svg_293)" id="svg_292" d="m1.42857,21.55559l10.71429,-19.36489l10.71429,19.20352l-21.42857,0.16137l-0.00001,0z"/>
    <path d="m11.98371,14.68571c-0.57143,-3.82857 -1.82857,-6.4 0.11429,-6.4c2.11429,0 0.74286,2.57143 0.11429,6.4l-0.22857,0l-0.00001,0z" id="svg_291" fill="#000000"/>
    <circle cx="12.14308" cy="17.37143" r="1.17578" id="svg_290" fill="#000000"/>
   </svg>
  </g>
  <g id="node_delete">
   <svg id="svg_437" height="24" width="24" xmlns="http://www.w3.org/2000/svg">
    <path fill="none" stroke="#8dd35f" d="m4.1953,19.42128c15.49391,-15.53349 -0.21065,0.1581 15.61084,-15.57944" id="svg_300" stroke-width="2"/>
    <circle cx="19.75" cy="4" r="2.26172" fill="#00ffff" stroke="#0000ff" id="svg_299" stroke-width="0.5"/>
    <circle cx="4.0653" cy="19.40299" r="2.26172" fill="#00ffff" stroke="#0000ff" stroke-width="0.5" id="svg_298"/>
    <circle cx="11.9375" cy="11.625" r="2.26172" fill="#00ffff" stroke="#0000ff" stroke-width="0.5" id="svg_297"/>
    <g id="svg_294" transform="rotate(-45.291072845458984 9.811571121215819,9.244086265563965) ">
     <line fill="none" stroke="#ff0000" stroke-width="2" stroke-dasharray="null" x1="4.47318" y1="9.3943" x2="15.14996" y2="9.45264" id="svg_296" stroke-linecap="round"/>
     <line fill="none" stroke="#ff0000" stroke-width="2" stroke-dasharray="null" x1="9.7824" y1="4.02238" x2="9.66571" y2="14.46579" id="svg_295" stroke-linecap="round"/>
    </g>
   </svg>
  </g>
  <g id="node_clone">
   <svg id="svg_438" height="24" width="24" xmlns="http://www.w3.org/2000/svg">
    <path fill="none" stroke="#8dd35f" d="m4.1953,19.42128c15.49391,-15.53349 -0.21065,0.1581 15.61084,-15.57944" id="svg_306" stroke-width="2"/>
    <circle cx="19.75" cy="4" r="2.26172" fill="#00ffff" stroke="#0000ff" id="svg_305" stroke-width="0.5"/>
    <circle cx="4.0653" cy="19.40299" r="2.26172" fill="#00ffff" stroke="#0000ff" stroke-width="0.5" id="svg_304"/>
    <circle cx="11.9375" cy="11.625" r="2.26172" fill="#00ffff" stroke="#0000ff" stroke-width="0.5" id="svg_303"/>
    <line fill="#0000ff" stroke="#0000ff" stroke-width="2" stroke-dasharray="null" x1="9.7824" y1="4.02238" x2="9.66571" y2="14.46579" id="svg_302" stroke-linecap="round"/>
    <line fill="#0000ff" stroke="#0000ff" stroke-width="2" stroke-dasharray="null" x1="4.47318" y1="9.3943" x2="15.14996" y2="9.45264" id="svg_301" stroke-linecap="round"/>
   </svg>
  </g>
  <g id="globe_link">
   <svg id="svg_439" viewBox="0 0 32 32" xmlns="http://www.w3.org/2000/svg" xmlns:xlink="http://www.w3.org/1999/xlink">
    <path id="svg_440" d="m25.33,9.84l-3.5,6.062c-0.553,0.956 -1.775,1.284 -2.732,0.731l-0.865,-0.5l1,-1.731c0.478,0.275 1.09,0.112 1.365,-0.366l2.5,-4.33c0.276,-0.479 0.112,-1.09 -0.365,-1.366l-3.465,-2c-0.479,-0.276 -1.09,-0.112 -1.365,0.366l-2.5,4.33c-0.277,0.479 -0.113,1.09 0.365,1.366l-1,1.731l-0.865,-0.5c-0.957,-0.552 -1.285,-1.775 -0.732,-2.731l3.5,-6.062c0.553,-0.957 1.775,-1.284 2.732,-0.732l5.195,3c0.957,0.552 1.285,1.775 0.732,2.732zm-11.83,10.49c-0.479,-0.276 -0.643,-0.888 -0.366,-1.366l4,-6.928c0.276,-0.479 0.888,-0.643 1.366,-0.366s0.643,0.888 0.365,1.366l-4,6.928c-0.275,0.478 -0.886,0.641 -1.365,0.366zm-0.732,-2.731l0,0c-0.479,-0.276 -1.09,-0.112 -1.366,0.365l-2.5,4.33c-0.276,0.479 -0.112,1.09 0.366,1.366l3.465,2c0.478,0.276 1.09,0.112 1.365,-0.366l2.5,-4.33c0.276,-0.478 0.112,-1.09 -0.365,-1.366l0,0l1,-1.731l0.865,0.5c0.957,0.552 1.285,1.774 0.732,2.731l-3.5,6.062c-0.553,0.957 -1.775,1.284 -2.732,0.732l-5.196,-3c-0.957,-0.553 -1.285,-1.775 -0.732,-2.732l3.5,-6.062c0.553,-0.957 1.776,-1.285 2.733,-0.732l0.865,0.5l-1,1.733z" class="path1"/>
   </svg>
  </g>
  <g id="svg_eof"/>
 </g>
</svg>